<?xml version="1.0" encoding="utf-8"?>
<!-- Generator: Adobe Illustrator 28.4.0, SVG Export Plug-In . SVG Version: 6.00 Build 0)  -->
<svg version="1.1" id="Layer_1" xmlns="http://www.w3.org/2000/svg" xmlns:xlink="http://www.w3.org/1999/xlink" x="0px" y="0px"
	 viewBox="0 0 53.9 43.6" style="enable-background:new 0 0 53.9 43.6;" xml:space="preserve">
<style type="text/css">
	.st0{fill:#015870;}
</style>
<g>
	<path class="st0" d="M19,41.7l-0.4-4.9h-0.2c-1.4,3-4.2,5.7-7.8,5.7c-5.2,0-7.8-5.5-7.8-11.1c0-9.3,5.5-14.4,15.4-14.3v-0.8
		c0-3.2-0.6-8.9-5.8-8.9c-2.4,0-4.9,1.1-6.7,2.9L4.6,5.7C6.7,3.6,9.8,2.3,13,2.3c7.8,0,9.8,8,9.8,15.7v14.4c0,3.3,0.1,6.6,0.4,9.2
		H19z M18.3,22c-5.1-0.2-10.9,1.2-10.9,8.7c0,4.5,2,6.7,4.4,6.7c3.3,0,5.5-3.2,6.2-6.4c0.2-0.7,0.3-1.5,0.3-2.2V22z"/>
	<path class="st0" d="M32.9,23.7C33,33.2,37.1,37,41.7,37c3.3,0,5.4-0.9,7.1-2l0.8,5c-1.6,1.1-4.5,2.4-8.5,2.4
		c-7.9,0-12.6-7.8-12.6-19.4c0-11.6,4.6-20.8,12-20.8c8.4,0,10.6,11.1,10.6,18.1c0,1.4-0.1,2.5-0.2,3.3H32.9z M46.6,18.7
		c0.1-4.5-1.2-11.4-6.5-11.4c-4.7,0-6.8,6.5-7.2,11.4H46.6z"/>
</g>
</svg>
